<?xml version="1.0"?>
<svg xmlns="http://www.w3.org/2000/svg" xmlns:xlink="http://www.w3.org/1999/xlink" xmlns:svgjs="http://svgjs.com/svgjs" version="1.1" width="512" height="512" x="0" y="0" viewBox="0 0 512 512" style="enable-background:new 0 0 512 512" xml:space="preserve" class=""><g><g xmlns="http://www.w3.org/2000/svg"><path d="m80.008 186.621c-.781-81.311 57.991-149.682 135.187-163.902-9.771-1.782-19.859-2.719-30.195-2.719-91.339 0-165.87 75.12-164.992 166.621l-.008 163.379 2.735-2.5c15.446-15.446 36.364-23.28 57.266-22.423z" fill="#c6e1f2" data-original="#c6e1f2" style="" class=""/><g fill="#0023c4"><path d="m511.992 328.705c.533-59.113-27.525-115.467-75.07-150.763-8.867-6.583-21.396-4.732-27.98 4.137s-4.731 21.396 4.137 27.98c37.337 27.717 59.36 71.968 58.915 118.37-.001.064-.001.128-.001.193l.006 125.691c-25.179-10.458-54.123-9.952-79.446 2.74-19.793 9.918-41.57 14.947-64.752 14.947-46.652 0-89.305-21.122-116.768-57.955-6.601-8.855-19.133-10.682-27.988-4.079s-10.682 19.133-4.078 27.989c35.089 47.061 89.46 74.046 148.853 74.045 29.439 0 57.251-6.456 82.654-19.187 21.443-10.749 47.426-6.396 64.648 10.828.212.211 7.57 8.359 16.882 8.359 14.919 0 19.996-12.074 19.996-20.001z" fill="#1f5f8b" data-original="#0023c4" style="" class=""/><path d="m184.344 370c49.222 0 95.581-18.949 130.546-53.362 35.061-34.508 54.629-80.614 55.102-129.825.479-49.96-18.515-96.919-53.485-132.228-34.864-35.2-81.567-54.585-131.507-54.585-49.583 0-96.217 19.514-131.31 54.947-35.07 35.408-54.132 82.201-53.682 131.767l-.008 163.285c0 7.927 4.681 15.105 11.934 18.302 2.592 1.143 5.337 1.699 8.063 1.699 4.901 0 9.738-1.802 13.498-5.239 0 0 18.583-19.79 43.301-19.79 8.417 0 16.878 1.906 24.731 5.841 25.405 12.733 53.213 19.188 82.635 19.188zm-107.527-65.041c-12.589 0-25.11 2.493-36.814 7.354 0 0 .006-125.821.005-125.885-.373-38.847 14.579-75.545 42.103-103.333 27.523-27.79 64.064-43.095 102.889-43.095 39.183 0 75.793 15.176 103.086 42.733 27.401 27.666 42.284 64.492 41.907 103.696-.761 79.183-66.23 143.577-145.813 143.571-23.161 0-44.942-5.029-64.732-14.947-13.551-6.792-28.138-10.094-42.631-10.094z" fill="#1f5f8b" data-original="#0023c4" style="" class=""/></g><path d="m288 186c0 13.807-11.193 25-25 25s-25-11.193-25-25c0-13.807 11.193-25 25-25 13.808 0 25 11.193 25 25zm-79 0c0 13.807-11.193 25-25 25s-25-11.193-25-25c0-13.807 11.193-25 25-25 13.808 0 25 11.193 25 25zm-79 0c0 13.807-11.193 25-25 25s-25-11.193-25-25c0-13.807 11.193-25 25-25 13.808 0 25 11.193 25 25z" fill="#ff7f98" data-original="#ff5cf7" style="" class=""/></g></g></svg>
