<svg height="682pt" viewBox="-21 -71 682.66669 682" width="682pt" xmlns="http://www.w3.org/2000/svg"><path d="m529.84375 20.683594h-56.765625c-5.109375 0-9.996094 2.074218-13.539063 5.753906l-51.523437 53.507812c-28.890625-23.902343-63.839844-40.71875-102.160156-47.789062-.105469-.019531-.207031-.054688-.3125-.074219-.074219-.011719-.152344-.011719-.226563-.027343-13.085937-2.382813-26.558594-3.628907-40.316406-3.628907-71.644531 0-135.5625 33.707031-176.734375 86.09375l-50.691406-42.964843v-55.765626c0-10.375-8.414063-18.789062-18.785157-18.789062-10.375 0-18.789062 8.414062-18.789062 18.789062v64.472657c0 5.523437 2.425781 10.761719 6.640625 14.332031l60.816406 51.539062c-17.300781 31.824219-27.140625 68.269532-27.140625 106.972657 0 123.890625 100.792969 224.679687 224.683594 224.679687 17.738281 0 34.996094-2.074218 51.558594-5.976562.105468-.023438.214844-.03125.324218-.058594.164063-.039062.320313-.097656.480469-.136719 35.296875-8.460937 67.382813-25.261719 94.042969-48.210937l45.757812 38.773437v55.773438c0 10.375 8.414063 18.789062 18.78125 18.789062 10.378907 0 18.789063-8.414062 18.789063-18.789062v-64.472657c0-5.523437-2.425781-10.761718-6.640625-14.335937l-50.277344-42.609375c19.917969-23.960938 34.957032-52.109375 43.582032-82.914062.046874-.15625.105468-.296876.148437-.453126.054687-.195312.085937-.390624.132813-.585937 5.203124-18.953125 8.003906-38.886719 8.003906-59.472656 0-56.105469-20.675782-107.476563-54.800782-146.890625l46.179688-47.960938h48.78125c10.375 0 18.785156-8.410156 18.785156-18.789062 0-10.375-8.410156-18.78125-18.785156-18.78125zm-451.953125 232.421875c0-29.414063 6.832031-57.257813 18.980469-82.046875l21.492187 18.21875c3.53125 2.992187 7.847657 4.453125 12.140625 4.453125 5.332032 0 10.625-2.257813 14.339844-6.640625 6.710938-7.917969 5.726562-19.773438-2.1875-26.480469l-25.703125-21.78125c34.25-44.269531 87.871094-72.832031 148.046875-72.832031 5.085938 0 10.125.214844 15.113281.613281l-33.589843 183.105469c-.007813.054687-.015626.109375-.023438.160156-.09375.539062-.167969 1.085938-.214844 1.632812-.011718.125-.015625.253907-.027344.378907-.027343.4375-.039062.871093-.039062 1.308593 0 .15625 0 .3125.007812.476563.015626.492187.046876.988281.101563 1.484375.019531.195312.046875.390625.078125.585938.046875.34375.109375.691406.179688 1.039062.035156.191406.070312.378906.113281.566406.011719.035156.015625.0625.019531.097656l42.984375 181.136719c-8.085937 1.070313-16.328125 1.632813-24.703125 1.632813-103.171875 0-187.109375-83.9375-187.109375-187.109375zm298.476563 91.351562c-7.914063-6.710937-19.769532-5.726562-26.480469 2.1875-6.707031 7.914063-5.726563 19.769531 2.1875 26.480469l30.238281 25.625c-16.589844 13.398438-35.511719 24.015625-56.054688 31.15625l-35.636718-150.199219 148.75 41.253907c-7.320313 18.746093-17.574219 36.035156-30.207032 51.289062zm75.742187-91.351562c0 10.785156-.933594 21.355469-2.691406 31.648437l-162.839844-45.160156 30.492187-166.214844c23.90625 6.9375 45.855469 18.527344 64.800782 33.71875l-23.910156 24.835938c-7.199219 7.46875-6.96875 19.363281.5 26.5625 3.648437 3.503906 8.339843 5.253906 13.027343 5.253906 4.925781 0 9.847657-1.929688 13.542969-5.757812l23.664062-24.582032c27.089844 32.46875 43.414063 74.207032 43.414063 119.695313zm0 0"/><path d="m73.117188 34.574219h37.253906c10.375 0 18.789062-8.414063 18.789062-18.785157 0-10.375-8.414062-18.789062-18.789062-18.789062h-37.253906c-10.378907 0-18.789063 8.414062-18.789063 18.789062 0 10.371094 8.410156 18.785157 18.789063 18.785157zm0 0"/><path d="m424.160156 499.164062h-37.261718c-10.375 0-18.789063 8.40625-18.789063 18.785157 0 10.375 8.414063 18.789062 18.789063 18.789062h37.261718c10.375 0 18.785156-8.414062 18.785156-18.789062 0-10.378907-8.410156-18.785157-18.785156-18.785157zm0 0"/><path d="m621.210938 20.683594h-38.519532c-10.378906 0-18.789062 8.40625-18.789062 18.78125 0 10.378906 8.410156 18.789062 18.789062 18.789062h38.519532c10.375 0 18.789062-8.410156 18.789062-18.789062 0-10.375-8.414062-18.78125-18.789062-18.78125zm0 0"/></svg>