<?xml version="1.0"?>
<svg xmlns="http://www.w3.org/2000/svg" xmlns:xlink="http://www.w3.org/1999/xlink" xmlns:svgjs="http://svgjs.com/svgjs" version="1.1" width="512" height="512" x="0" y="0" viewBox="0 0 512 512" style="enable-background:new 0 0 512 512" xml:space="preserve" class=""><g><g xmlns="http://www.w3.org/2000/svg"><path d="m111.251 491.577c-51.13-4.433-91.251-47.335-91.251-99.614v-168.272c0-31.191 14.554-60.596 39.355-79.512l136-103.729c35.816-27.317 85.474-27.317 121.29 0l9.2 7.017c-24.56-2.424-49.828 4.224-70.489 19.983l-161.744 123.364c-8.578 6.542-13.612 16.713-13.612 27.501v200.647c0 28.598 12.007 54.389 31.251 72.615zm165.773-22.614c0-53-36.024-100-36.024-100v-48c0-29.602 18.738-54.827 45-64.462-7.371-2.705-15.335-3.538-23.644-3.538h-12.712c-37.911 0-68.644 30.089-68.644 68v65s36.024-1.589 36.024 83c0 13.289 12.213 23 25.502 23h26.948c6.094 0 11.958-2.133 16.526-5.72-5.392-4.235-8.976-10.085-8.976-17.28z" fill="#cee1f2" data-original="#cee1f2" style="" class=""/><path d="m392 511.963h-29c-11.046 0-20-8.954-20-20s8.954-20 20-20h29c44.112 0 80-35.888 80-80v-168.271c0-24.794-11.77-48.573-31.484-63.61l-136-103.729c-28.564-21.787-68.467-21.787-97.031 0l-136 103.729c-19.715 15.036-31.485 38.816-31.485 63.61v168.271c0 44.112 35.888 80 80 80h26c11.046 0 20 8.954 20 20s-8.954 20-20 20h-26c-66.168 0-120-53.832-120-120v-168.271c0-37.191 17.654-72.86 47.227-95.415l136-103.729c42.848-32.681 102.699-32.681 145.547 0l136 103.729c29.572 22.554 47.226 58.223 47.226 95.415v168.271c0 66.168-53.832 120-120 120zm-77.023-43c0-39.39 29.519-68.231 29.751-68.455 4.004-3.779 6.272-9.04 6.272-14.545v-65c0-23.688-9.254-45.866-26.056-62.451-16.692-16.476-38.92-25.549-62.588-25.549h-12.713c-23.668 0-45.896 9.074-62.588 25.549-16.801 16.584-26.055 38.763-26.055 62.451v65c0 5.505 2.269 10.766 6.272 14.545.297.281 29.751 29.178 29.751 68.455 0 23.71 20.412 43 45.502 43h26.949c25.09 0 45.503-19.29 45.503-43zm-113.977-148c0-26.467 21.821-48 48.644-48h12.713c26.822 0 48.644 21.533 48.644 48v57.132c-11.812 13.603-36.023 46.858-36.023 90.868 0 1.157-2.518 3-5.502 3h-26.949c-2.984 0-5.502-1.843-5.502-3 0-44.01-24.212-77.265-36.023-90.868v-57.132zm130 65h.01z" fill="#1f5f8b" data-original="#0023c4" style="" class=""/><path d="m255 213.963c-35.841 0-65-29.159-65-65s29.159-65 65-65 65 29.159 65 65-29.159 65-65 65zm0-90c-13.785 0-25 11.215-25 25s11.215 25 25 25 25-11.215 25-25-11.215-25-25-25z" fill="#ff7f98" data-original="#ff5cf7" style="" class=""/></g></g></svg>
