<?xml version="1.0"?>
<svg xmlns="http://www.w3.org/2000/svg" xmlns:xlink="http://www.w3.org/1999/xlink" xmlns:svgjs="http://svgjs.com/svgjs" version="1.1" width="512" height="512" x="0" y="0" viewBox="0 0 512 512" style="enable-background:new 0 0 512 512" xml:space="preserve" class=""><g><g xmlns="http://www.w3.org/2000/svg"><g><path d="m69.356 104.714c6.943-4.348 14.246-6.016 16.531-6.458h18.85v-29.652l-22.043.13c-19.846 2.646-57.378 19.046-57.378 62.175l.049 119.504c.028.86.131 7.995-3.832 12.219-2.712 2.89-7.433 4.355-14.033 4.355v29.651c6.6 0 11.321 1.465 14.033 4.355 3.947 4.206 3.862 11.299 3.833 12.208l-.05 119.515c0 43.129 37.532 59.529 57.378 62.175l22.043.13v-29.651h-18.855c-2.217-.428-9.119-2.005-15.856-6.048-10.132-6.079-15.058-14.782-15.058-26.606v-117.765c.238-4.202.325-20.343-10.82-33.138 11.145-12.795 11.058-28.935 10.82-33.137v-117.767c-.001-11.564 4.706-20.133 14.388-26.195z" fill="#1891ac" data-original="#0ed290" style=""/><path d="m69.356 104.714c6.943-4.348 14.246-6.016 16.531-6.458h18.85v-29.652l-19.965.118c2.567.446 4.523 2.679 4.523 5.377v18.694c0 3.017-2.446 5.462-5.462 5.462h-13.388c-2.285.443-9.588 2.111-16.531 6.458-9.682 6.062-14.388 14.631-14.388 26.195v117.767c.204 3.606.297 16.004-6.724 27.535-2.096 3.443-2.097 7.762 0 11.205 7.021 11.531 6.928 23.929 6.724 27.535v117.767c0 11.823 4.926 20.526 15.058 26.606 6.738 4.043 13.64 5.62 15.856 6.048h13.393c3.017 0 5.462 2.446 5.462 5.462v18.694c0 2.698-1.956 4.931-4.523 5.377l19.965.118v-29.652h-18.855c-2.217-.428-9.119-2.005-15.856-6.048-10.132-6.079-15.058-14.782-15.058-26.606v-117.765c.238-4.202.325-20.343-10.82-33.138 11.145-12.795 11.058-28.935 10.82-33.137v-117.767c0-11.564 4.706-20.133 14.388-26.195z" fill="#0f4c5a" data-original="#00c285" style="" class=""/><path d="m410.865 104.714c-6.943-4.348-14.246-6.016-16.531-6.458h-18.85v-29.652h21.067l.975.13c19.846 2.646 57.378 19.046 57.378 62.175l-.049 119.504c-.028.86-.131 7.995 3.832 12.219 2.712 2.89 7.433 4.355 14.033 4.355v29.651c-6.6 0-11.321 1.465-14.033 4.355-3.947 4.206-3.862 11.299-3.833 12.208l.05 119.515c0 43.129-37.532 59.529-57.378 62.175l-22.043.13v-29.651h18.855c2.217-.428 9.119-2.005 15.856-6.048 10.132-6.079 15.058-14.782 15.058-26.606v-117.765c-.238-4.202-.325-20.343 10.82-33.138-11.145-12.795-11.058-28.935-10.82-33.137v-117.767c.001-11.564-4.705-20.133-14.387-26.195z" fill="#1891ac" data-original="#0ed290" style=""/><path d="m458.688 262.632c-3.963-4.224-3.86-11.359-3.832-12.219l.049-119.504c0-43.129-37.532-59.529-57.378-62.175l-.975-.13h-15.442l.975.13c19.846 2.646 57.378 19.046 57.378 62.175l-.049 119.504c-.028.86-.131 7.995 3.832 12.219 1.726 1.839 4.265 3.101 7.585 3.776 3.784.769 6.448 4.188 6.448 8.05v14.71c0 3.861-2.664 7.281-6.448 8.05-3.32.675-5.86 1.937-7.585 3.776-3.947 4.206-3.862 11.299-3.833 12.208l.05 119.515c0 43.129-37.532 59.529-57.378 62.175l-6.601.039v.091l22.043-.13c19.846-2.646 57.378-19.046 57.378-62.175l-.05-119.515c-.029-.909-.114-8.002 3.833-12.208 2.712-2.89 7.433-4.355 14.033-4.355v-29.651c-6.6-.001-11.322-1.466-14.033-4.356z" fill="#0f4c5a" data-original="#00c285" style="" class=""/><g><path d="m155.614 420.557c-6.568 0-12.41-4.348-14.243-10.739l-19.865-73.275h-16.768v-29.651h27.939c6.614 0 12.428 4.381 14.251 10.738l18.074 67.251 23.208-202.942c1.055-7.292 7.305-12.702 14.673-12.702h172.602v29.651h-157.651l-24.904 208.967c-1.001 6.916-6.696 12.195-13.669 12.668-.338.023-23.311.034-23.647.034z" fill="#1891ac" data-original="#0ed290" style=""/></g><g><path d="m155.614 420.557c-6.568 0-12.41-4.348-14.243-10.739l-19.865-73.275h-16.768v-29.651h27.939c6.614 0 12.428 4.381 14.251 10.738l18.074 67.251 23.208-202.942c1.055-7.292 7.305-12.702 14.673-12.702h172.602v29.651h-157.651l-24.904 208.967c-1.001 6.916-6.696 12.195-13.669 12.668-.338.023-23.311.034-23.647.034z" fill="#537983" data-original="#537983" style=""/></g><g fill="#3e5959"><g><path d="m201.716 204.565-24.228 203.29c-1.001 6.917-6.696 12.195-13.669 12.668-.137.01-3.965.017-8.502.022.099.002.197.012.297.012.336 0 23.309-.011 23.647-.035 6.972-.473 12.667-5.751 13.669-12.668l24.905-208.966h-9.726c-3.261.001-6.007 2.439-6.393 5.677z" fill="#000000" data-original="#000000" style="" class=""/><path d="m353.604 169.238c3.555 0 6.437 2.882 6.437 6.437v16.777c0 3.555-2.882 6.437-6.437 6.437h21.879v-29.651z" fill="#000000" data-original="#000000" style="" class=""/></g><path d="m163.409 398.808 1.593-13.927-18.074-67.251c-1.824-6.358-7.637-10.738-14.251-10.738h-15.442c6.614 0 12.427 4.381 14.251 10.738l22.015 81.916c.594 2.209 2.596 3.745 4.884 3.745 2.57-.001 4.732-1.929 5.024-4.483z" fill="#3e5959" data-original="#3e5959" style=""/></g></g><g><path d="m104.737 457.871h-18.095c-2.271-.492-7.602-1.886-12.757-4.979-7.896-4.738-11.417-10.96-11.417-20.175v-117.566c.252-4.945.119-19.812-8.902-33.338 9.021-13.526 9.154-28.393 8.902-33.338v-117.566c0-9.014 3.352-15.132 10.869-19.839 5.299-3.318 10.934-4.799 13.312-5.315h18.088c4.142 0 7.5-3.358 7.5-7.5v-29.651c0-1.997-.796-3.911-2.212-5.319-1.416-1.407-3.323-2.155-5.332-2.181l-22.042.13c-.316.002-.633.024-.947.066-5.231.697-23.57 4.025-39.923 17.563-15.677 12.979-23.964 30.976-23.964 52.048l.049 119.503c0 .082.001.163.004.244.063 1.916-.467 5.415-1.805 6.841-.438.466-2.348 1.987-8.564 1.987-4.142 0-7.5 3.358-7.5 7.5v29.651c0 4.142 3.358 7.5 7.5 7.5 6.216 0 8.126 1.521 8.564 1.987 1.334 1.422 1.866 4.921 1.806 6.838-.002.078-.004.156-.004.235l-.031 73.136c-.002 4.142 3.354 7.501 7.497 7.503h.003c4.141 0 7.498-3.356 7.5-7.497l.031-73.031c.07-2.729-.197-11.409-5.863-17.447-2.889-3.08-6.91-5.111-12.002-6.074v-15.95c5.092-.963 9.113-2.995 12.002-6.074 5.674-6.047 5.936-14.728 5.863-17.463l-.049-119.392c0-16.524 10.553-49.124 50.409-54.678l14.012-.083v14.607h-11.35c-.479 0-.957.046-1.427.137-3.119.604-11.223 2.542-19.083 7.464-11.883 7.44-17.909 18.393-17.909 32.552v117.767c0 .141.004.283.012.424.155 2.739.451 16.953-8.987 27.787-2.459 2.824-2.459 7.029 0 9.853 9.438 10.834 9.142 25.048 8.987 27.788-.008.141-.012.283-.012.424v117.767c0 14.477 6.292 25.592 18.7 33.037 7.647 4.588 15.34 6.41 18.292 6.98.469.091.945.136 1.422.136h11.355v14.607l-14.012-.083c-39.856-5.554-50.409-38.154-50.409-54.675l.004-10.712c.001-4.143-3.355-7.501-7.497-7.503-.001 0-.002 0-.003 0-4.141 0-7.499 3.356-7.5 7.497l-.004 10.715c0 21.069 8.287 39.066 23.964 52.045 16.353 13.539 34.692 16.866 39.923 17.563.314.042.63.064.947.066l22.042.13h.044c1.98 0 3.882-.784 5.288-2.181 1.416-1.408 2.212-3.322 2.212-5.319v-29.651c-.001-4.14-3.359-7.498-7.501-7.498z" fill="#000000" data-original="#000000" style="" class=""/><path d="m472.721 259.487c-6.216 0-8.126-1.521-8.564-1.987-1.338-1.426-1.869-4.925-1.805-6.841.002-.081.004-.162.004-.244l.049-119.506c0-21.069-8.287-39.066-23.964-52.045-16.353-13.539-34.692-16.866-39.921-17.563l-.975-.131c-.33-.044-.662-.066-.994-.066h-21.067c-4.142 0-7.5 3.358-7.5 7.5v29.651c0 4.142 3.358 7.5 7.5 7.5h18.089c2.377.516 8.012 1.997 13.312 5.315 7.517 4.706 10.869 10.825 10.869 19.838v117.566c-.252 4.945-.121 19.811 8.902 33.338-9.022 13.527-9.154 28.393-8.902 33.338v117.566c0 9.215-3.521 15.437-11.417 20.175-5.155 3.093-10.486 4.487-12.757 4.979h-18.095c-4.142 0-7.5 3.358-7.5 7.5v29.651c0 1.997.796 3.911 2.212 5.319 1.406 1.397 3.307 2.181 5.288 2.181h.044l22.042-.13c.316-.002.633-.024.947-.066 5.231-.697 23.57-4.025 39.923-17.563 15.677-12.979 23.964-30.976 23.964-52.048l-.05-119.515c0-.079-.001-.157-.004-.235-.061-1.917.471-5.416 1.806-6.838.438-.466 2.348-1.987 8.564-1.987 4.142 0 7.5-3.358 7.5-7.5v-29.651c0-4.143-3.358-7.501-7.5-7.501zm-7.5 30.301c-5.092.963-9.113 2.995-12.002 6.074-5.666 6.039-5.934 14.719-5.863 17.447l.05 119.408c0 16.524-10.552 49.124-50.409 54.678l-14.012.083v-14.607h11.355c.478 0 .954-.045 1.422-.136 2.953-.57 10.646-2.392 18.293-6.98 12.408-7.445 18.699-18.56 18.699-33.037v-117.767c0-.141-.004-.283-.012-.424-.155-2.739-.451-16.953 8.987-27.788 2.459-2.824 2.459-7.029 0-9.853-9.438-10.834-9.142-25.048-8.987-27.787.008-.141.012-.283.012-.424v-117.766c0-14.16-6.025-25.112-17.908-32.552-7.861-4.923-15.965-6.86-19.085-7.465-.47-.091-.948-.137-1.427-.137h-11.35v-14.651h13.068l.483.064c40.238 5.365 50.87 38.153 50.87 54.738l-.049 119.395c-.073 2.735.188 11.416 5.863 17.463 2.889 3.079 6.91 5.111 12.002 6.074z" fill="#000000" data-original="#000000" style="" class=""/><path d="m382.983 198.889v-29.651c0-4.142-3.358-7.5-7.5-7.5h-35.702c-4.142 0-7.5 3.358-7.5 7.5s3.358 7.5 7.5 7.5h28.202v14.651h-150.149c-3.799 0-6.998 2.84-7.447 6.612l-24.892 208.856c-.515 3.304-3.257 5.87-6.58 6.17-2.306.019-22.306.03-23.301.03-3.23 0-6.111-2.162-7.022-5.263l-19.848-73.213c-.886-3.269-3.853-5.538-7.239-5.538h-9.269v-14.652h20.439c3.233 0 6.116 2.16 7.028 5.257l18.055 67.179c.935 3.478 4.213 5.793 7.8 5.533 3.591-.268 6.485-3.05 6.895-6.627l23.192-202.812c.558-3.532 3.652-6.184 7.236-6.184h101.319c4.142 0 7.5-3.358 7.5-7.5s-3.358-7.5-7.5-7.5h-101.318c-11.018 0-20.517 8.223-22.095 19.128-.011.074-.02.148-.029.222l-18.733 163.818-7.854-29.223c-.011-.041-.022-.081-.034-.121-2.731-9.521-11.556-16.17-21.461-16.17h-27.939c-4.142 0-7.5 3.358-7.5 7.5v29.652c0 4.142 3.358 7.5 7.5 7.5h11.031l18.364 67.738c.01.035.02.07.029.105 2.731 9.521 11.553 16.171 21.453 16.171 3.906 0 23.426-.002 24.155-.052 10.43-.708 19.086-8.731 20.583-19.077.009-.062.017-.125.024-.187l24.117-202.354h150.99c4.142.002 7.5-3.356 7.5-7.498z" fill="#000000" data-original="#000000" style="" class=""/><path d="m371.003 402.512-60.304-79.46 51.626-68.467c2.494-3.308 1.834-8.01-1.473-10.504-3.309-2.495-8.01-1.834-10.504 1.473l-49.073 65.081-49.405-65.1c-2.503-3.299-7.207-3.945-10.508-1.44-3.299 2.504-3.944 7.208-1.44 10.508l51.969 68.478-57.841 76.71c-2.494 3.308-1.834 8.01 1.473 10.504 1.353 1.02 2.938 1.512 4.51 1.512 2.273 0 4.52-1.03 5.994-2.985l55.288-73.324 57.74 76.082c1.475 1.944 3.714 2.966 5.979 2.966 1.58 0 3.173-.498 4.529-1.526 3.3-2.504 3.945-7.208 1.44-10.508z" fill="#000000" data-original="#000000" style="" class=""/><path d="m504.502 68.326c-.032 0-.064 0-.096 0-5.137.064-10.561.11-15.285.126 3.112-4.19 7.25-9.88 12.636-17.575 3.773-5.788 7.476-11.985 7.792-19.097 0-12.298-10.005-22.303-22.302-22.303-10.634 0-19.837 7.565-21.884 17.988-.798 4.064 1.85 8.006 5.914 8.805 4.063.795 8.007-1.85 8.805-5.914.669-3.406 3.683-5.879 7.166-5.879 3.894 0 7.086 3.064 7.292 6.908l-.161 1.266c-.697 2.706-2.389 6.024-4.909 9.625-9.151 13.075-14.611 20.224-17.545 24.065-3.711 4.859-5.574 7.298-4.313 11.397.748 2.43 2.585 4.293 5.04 5.111.981.327 1.865.622 13.333.622 4.424 0 10.424-.044 18.611-.146 4.142-.052 7.457-3.452 7.405-7.594-.053-4.109-3.4-7.405-7.499-7.405z" fill="#000000" data-original="#000000" style="" class=""/><path d="m104.737 197.488c-4.142 0-7.5 3.358-7.5 7.5v60.437c0 4.142 3.358 7.5 7.5 7.5s7.5-3.358 7.5-7.5v-29.17c0-14.084 5.863-23.184 14.938-23.184 3.382 0 5.895.893 7.683 2.731 3.2 3.29 4.756 9.929 4.5 19.197-.002.069-.003.138-.003.208v29.931c0 4.142 3.358 7.5 7.5 7.5s7.5-3.358 7.5-7.5v-29.831c.358-13.549-2.583-23.63-8.744-29.964-4.628-4.757-11.002-7.272-18.435-7.272-5.311 0-10.636 1.509-15.294 4.634-.968-3.025-3.8-5.217-7.145-5.217z" fill="#000000" data-original="#000000" style="" class=""/></g></g></g></svg>
