<?xml version="1.0" encoding="iso-8859-1"?>
<!-- Generator: Adobe Illustrator 19.0.0, SVG Export Plug-In . SVG Version: 6.00 Build 0)  -->
<svg version="1.1" id="Layer_1" xmlns="http://www.w3.org/2000/svg" xmlns:xlink="http://www.w3.org/1999/xlink" x="0px" y="0px"
	 viewBox="0 0 298.489 298.489" style="enable-background:new 0 0 298.489 298.489;" xml:space="preserve">
<g>
	<g>
		<g>
			<path d="M292.114,197.387h-23.559V52.302c0-3.522-2.853-6.375-6.375-6.375H36.309c-3.521,0-6.375,2.853-6.375,6.375v145.085
				H6.375c-3.521,0-6.375,2.853-6.375,6.375v42.425c0,3.522,2.854,6.375,6.375,6.375h285.739c3.522,0,6.375-2.853,6.375-6.375
				v-42.425C298.489,200.24,295.636,197.387,292.114,197.387z M42.684,58.677h213.121v138.71H42.684V58.677z M285.739,239.812H12.75
				v-29.675c4.069,0,270.478,0,272.989,0V239.812z"/>
			<path d="M225.049,92.075h-97.066c-2.564,0-4.877,1.536-5.873,3.897l-18.794,44.547l-6.355-16.635
				c-0.944-2.468-3.313-4.1-5.955-4.1H73.441c-3.521,0-6.375,2.853-6.375,6.375c0,3.522,2.854,6.375,6.375,6.375h13.175
				l10.452,27.356c2.044,5.351,9.592,5.505,11.829,0.202l23.316-55.268h92.836c3.522,0,6.375-2.853,6.375-6.375
				C231.424,94.929,228.569,92.075,225.049,92.075z"/>
			<path d="M188.431,123.749c-2.49-2.489-6.526-2.489-9.016,0l-8.209,8.209l-8.209-8.209c-2.491-2.489-6.526-2.489-9.016,0
				c-2.49,2.49-2.49,6.526,0,9.016l8.209,8.209l-8.209,8.209c-2.49,2.49-2.49,6.526,0,9.016c2.491,2.49,6.526,2.489,9.016,0
				l8.209-8.209l8.209,8.209c2.491,2.49,6.526,2.489,9.016,0c2.49-2.49,2.49-6.526,0-9.016l-8.209-8.209l8.209-8.209
				C190.921,130.275,190.921,126.239,188.431,123.749z"/>
		</g>
	</g>
</g>
<g>
</g>
<g>
</g>
<g>
</g>
<g>
</g>
<g>
</g>
<g>
</g>
<g>
</g>
<g>
</g>
<g>
</g>
<g>
</g>
<g>
</g>
<g>
</g>
<g>
</g>
<g>
</g>
<g>
</g>
</svg>
