<?xml version="1.0"?>
<svg xmlns="http://www.w3.org/2000/svg" xmlns:xlink="http://www.w3.org/1999/xlink" xmlns:svgjs="http://svgjs.com/svgjs" version="1.1" width="512" height="512" x="0" y="0" viewBox="0 0 512 512" style="enable-background:new 0 0 512 512" xml:space="preserve" class=""><g><g xmlns="http://www.w3.org/2000/svg"><g><path d="m391.47 495.847-22.204 8.082c-4.874 1.774-10.264-.739-12.038-5.613l-159.162-437.294c-1.774-4.874.739-10.264 5.613-12.038l22.204-8.082c4.874-1.774 10.264.739 12.038 5.613l159.162 437.293c1.775 4.876-.738 10.265-5.613 12.039z" fill="#ba5d4f" data-original="#ba5d4f" style=""/><path d="m225.888 40.904-21.772 7.925c4.872-1.773 10.261.733 12.038 5.613l61.048 167.729-18.086 6.583 13.737 37.742 7.629-2.777c5.775-2.102 12.161.876 14.263 6.651l80.571 221.366c1.773 4.872-.742 10.265-5.613 12.038l21.772-7.925c4.874-1.774 7.387-7.164 5.613-12.038l-159.162-437.294c-1.776-4.88-7.166-7.386-12.038-5.613z" fill="#a34f41" data-original="#a34f41" style=""/></g><g><path d="m458.264 168.276-346.311 126.047c-7.311 2.661-15.395-1.109-18.057-8.42l-48.571-133.448c-2.661-7.311 1.109-15.395 8.42-18.057l346.311-126.047c7.311-2.661 15.395 1.109 18.057 8.42l48.571 133.448c2.661 7.312-1.109 15.396-8.42 18.057z" fill="#fb4a59" data-original="#fb4a59" style=""/><path d="m103.051 68.44h293.859v170.181h-293.859z" fill="#1891ac" transform="matrix(.94 -.342 .342 .94 -37.435 94.757)" data-original="#64b9fc" style="" class=""/><path d="m356.752 23.705h32.269v170.181h-32.269z" fill="#126f84" transform="matrix(.94 -.342 .342 .94 -14.723 134.096)" data-original="#31a7fb" style="" class=""/><path d="m418.112 16.776 48.569 133.441c2.663 7.316-1.104 15.394-8.42 18.057l-35.823 13.038c7.316-2.663 11.083-10.74 8.42-18.057l-48.568-133.441c-2.663-7.316-10.74-11.083-18.057-8.42l35.823-13.038c7.316-2.663 15.393 1.104 18.056 8.42z" fill="#f82f40" data-original="#f82f40" style="" class=""/><g><path d="m135.2 148.697c-3.486 2.237-4.499 6.876-2.262 10.363l41.723 65.024c1.411 2.199 3.816 3.451 6.314 3.451.855 0 1.722-.147 2.563-.453 3.296-1.2 5.321-4.523 4.874-8.002l-9.835-76.63c-.527-4.108-4.284-7.011-8.394-6.484-4.109.527-7.012 4.285-6.484 8.394l5.594 43.583-23.729-36.982c-2.239-3.488-6.879-4.501-10.364-2.264z" fill="#000000" data-original="#000000" style="" class=""/><path d="m222.572 211.976c1.595 0 3.216-.273 4.799-.849l14.587-5.31c3.533-1.286 6.353-3.871 7.942-7.278s1.756-7.229.47-10.761l-22.106-60.735c-1.286-3.533-3.87-6.354-7.277-7.942-3.406-1.588-7.229-1.755-10.762-.47l-14.587 5.31c-3.533 1.286-6.353 3.871-7.942 7.278s-1.756 7.229-.47 10.761l22.106 60.735c2.078 5.709 7.489 9.261 13.24 9.261zm-8.087-78.933 21.473 58.996-12.848 4.676-21.473-58.996z" fill="#000000" data-original="#000000" style="" class=""/><path d="m314.721 178.437c1.595 0 3.217-.273 4.8-.849l17.378-6.325c3.893-1.417 5.899-5.721 4.482-9.613s-5.722-5.9-9.613-4.482l-16.508 6.009-8.171-22.45 11.056-4.024c3.892-1.417 5.898-5.721 4.482-9.613s-5.718-5.901-9.613-4.483l-11.055 4.024-8.171-22.45 16.509-6.008c3.892-1.417 5.899-5.721 4.482-9.613s-5.721-5.899-9.613-4.482l-17.377 6.325c-3.533 1.286-6.354 3.87-7.942 7.277-1.59 3.408-1.757 7.23-.471 10.762l22.105 60.736c2.078 5.707 7.489 9.259 13.24 9.259z" fill="#000000" data-original="#000000" style="" class=""/><path d="m278.512 192.034c.852 0 1.718-.146 2.564-.454 3.892-1.417 5.899-5.721 4.482-9.613l-24.038-66.043 6.425-2.338c3.892-1.417 5.899-5.721 4.482-9.613-1.416-3.891-5.718-5.903-9.613-4.483l-26.942 9.806c-3.893 1.417-5.899 5.721-4.483 9.613 1.109 3.046 3.984 4.937 7.048 4.937.852 0 1.718-.146 2.564-.454l6.424-2.338 24.037 66.042c1.109 3.047 3.985 4.938 7.05 4.938z" fill="#000000" data-original="#000000" style="" class=""/><path d="m351.057 133.212c.852 0 1.718-.146 2.564-.454 3.893-1.417 5.899-5.721 4.482-9.613l-16.183-44.466c-1.416-3.892-5.72-5.9-9.613-4.482-3.893 1.417-5.899 5.721-4.482 9.613l16.185 44.465c1.107 3.046 3.983 4.937 7.047 4.937z" fill="#000000" data-original="#000000" style="" class=""/><path d="m354.348 156.867c1.093 3.073 3.982 4.991 7.067 4.991.834 0 1.682-.14 2.512-.435l.118-.042c3.902-1.387 5.942-5.675 4.556-9.578-1.388-3.903-5.68-5.942-9.579-4.556l-.118.042c-3.902 1.387-5.942 5.676-4.556 9.578z" fill="#000000" data-original="#000000" style="" class=""/><path d="m473.732 147.655-48.571-133.449c-4.071-11.186-16.483-16.974-27.67-12.903l-148.382 54.007-4.138-11.362c-3.19-8.748-12.901-13.275-21.654-10.097l-22.188 8.086c-4.245 1.539-7.634 4.64-9.543 8.731-1.908 4.087-2.109 8.672-.568 12.915l4.137 11.366-143.975 52.401c-5.419 1.972-9.745 5.937-12.182 11.163s-2.693 11.088-.721 16.507l19.051 52.344c1.109 3.046 3.985 4.938 7.048 4.937.852 0 1.718-.146 2.564-.454 3.893-1.417 5.899-5.721 4.483-9.613l-19.05-52.344c-.602-1.654-.524-3.443.22-5.038s2.064-2.805 3.717-3.406l22.014-8.013 53.078 145.829-22.015 8.013c-3.411 1.243-7.201-.523-8.443-3.937l-17.62-48.411c-1.418-3.893-5.721-5.901-9.613-4.483-3.893 1.417-5.899 5.721-4.483 9.613l17.62 48.412c3.188 8.757 11.486 14.206 20.308 14.206 2.446 0 4.934-.419 7.362-1.303l143.97-52.401 45.929 126.183c1.108 3.045 3.984 4.937 7.049 4.937.852 0 1.718-.146 2.564-.454 3.893-1.417 5.899-5.721 4.482-9.613l-45.928-126.184 25.764-9.377 91.686 251.902c.358.988-.145 2.08-1.124 2.436l-22.22 8.083c-.975.358-2.062-.155-2.418-1.131l-33.819-92.93c-1.416-3.892-5.721-5.901-9.612-4.483-3.893 1.417-5.899 5.72-4.483 9.613l33.823 92.94c2.504 6.849 8.996 11.107 15.886 11.107 1.916 0 3.862-.33 5.763-1.024l22.207-8.079c8.745-3.178 13.275-12.888 10.097-21.654l-91.689-251.911 17.809-6.482c3.892-1.417 5.899-5.721 4.482-9.613-1.417-3.893-5.721-5.901-9.613-4.483l-179.624 65.378-53.079-145.829 262.042-95.375 53.078 145.829-49.624 18.061c-3.892 1.417-5.899 5.721-4.482 9.613 1.416 3.892 5.72 5.899 9.613 4.483l97.783-35.59c11.185-4.072 16.974-16.484 12.902-27.669zm-268.618-89.199c-.221-.607-.087-1.121.063-1.444.151-.322.458-.753 1.076-.977l22.194-8.088c.982-.357 2.073.155 2.431 1.138l4.136 11.356-25.764 9.377zm250.585 102.772-34.064 12.398-53.077-145.829 34.064-12.398c3.416-1.244 7.201.525 8.443 3.937l48.571 133.449c1.243 3.413-.523 7.201-3.937 8.443z" fill="#000000" data-original="#000000" style="" class=""/></g></g></g></g></svg>
