<svg id="Capa_1" enable-background="new 0 0 512.002 512.002" height="512" viewBox="0 0 512.002 512.002" width="512" xmlns="http://www.w3.org/2000/svg"><g><g><path d="m481.001 190.825-73.333-42.339c-3.094-1.787-6.906-1.787-10 0l-58.333 33.679v-129.826c0-3.572-1.906-6.874-5-8.66l-73.334-42.339c-3.094-1.787-6.906-1.787-10 0l-73.333 42.339c-3.094 1.786-5 5.088-5 8.66v242.325l-58.333-33.679c-3.094-1.787-6.906-1.787-10 0l-73.334 42.339c-3.094 1.786-5 5.088-5 8.66v147.678c0 3.572 1.906 6.874 5 8.66l73.334 42.339c3.094 1.787 6.906 1.787 10 0l68.333-39.452 68.333 39.452c3.094 1.787 6.906 1.787 10 0l68.334-39.452 68.333 39.452c1.547.894 3.273 1.34 5 1.34s3.453-.446 5-1.34l73.333-42.339c3.094-1.786 5-5.088 5-8.66v-260.177c0-3.572-1.906-6.874-5-8.66zm-78.333-22.132 53.333 30.792-53.333 30.792-53.333-30.792zm-146.667-147.146 53.334 30.792-53.334 30.792-53.333-30.792zm-146.666 259.646 53.333 30.792-53.333 30.792-53.334-30.792zm-63.334 48.113 53.334 30.792v124.584l-53.334-30.792zm73.334 155.375v-124.584l53.333-30.792v124.584zm146.666 0v-183.683c0-5.522-4.478-10-10-10s-10 4.478-10 10v183.684l-53.333-30.792v-384.231l53.333 30.792v110.546c0 5.522 4.478 10 10 10s10-4.478 10-10v-110.545l53.334-30.792v384.23zm73.334-267.875 53.333 30.792v237.084l-53.333-30.792zm73.333 267.875v-237.084l53.333-30.792v237.084z"/><path d="m256.001 245.998c-5.522 0-10 4.481-10 10.004s4.478 10 10 10 10-4.478 10-10v-.008c0-5.523-4.478-9.996-10-9.996z"/></g></g></svg>